<svg fill="none" height="512" viewBox="0 0 36 36" width="512" xmlns="http://www.w3.org/2000/svg"><g id="36 Multicolor / Flag / mc_36_flag_brazil"><g id="mc_36_flag_Brazil"><path id="Oval" d="m18 36c9.9411 0 18-8.0589 18-18 0-9.94113-8.0589-18-18-18-9.94113 0-18 8.05887-18 18 0 9.9411 8.05887 18 18 18z" fill="#009b3a"/><path id="Path" d="m18 7.04297 14.87 10.95703-14.87 10.957-14.87-10.957z" fill="#fedf00"/><path id="Oval_2" d="m18 24.261c3.4579 0 6.261-2.8031 6.261-6.261 0-3.4578-2.8031-6.261-6.261-6.261-3.4578 0-6.261 2.8032-6.261 6.261 0 3.4579 2.8032 6.261 6.261 6.261z" fill="#f0f0f0"/><path id="Shape" clip-rule="evenodd" d="m24.261 18c-.0002.4028-.039.8047-.116 1.2v.011c-2.349-2.428-5.639-3.94-9.275-3.94-.8812-.0006-1.7601.0892-2.623.268.958-2.24 3.173-3.8 5.753-3.8 1.6606-.0003 3.2533.6593 4.4275 1.8335s1.8338 2.7669 1.8335 4.4275zm-12.519.073c1.0129-.3143 2.0675-.4737 3.128-.473l-.001.008c3.2159-.0003 6.2563 1.4661 8.258 3.983-1.132 1.614-3.007 2.67-5.127 2.67-3.4286-.0009-6.2186-2.7596-6.258-6.188z" fill="#002776" fill-rule="evenodd"/></g></g></svg>